<?xml version="1.0" standalone="no"?><!DOCTYPE svg PUBLIC "-//W3C//DTD SVG 1.1//EN" "http://www.w3.org/Graphics/SVG/1.1/DTD/svg11.dtd"><svg t="1727512582804" class="icon" viewBox="0 0 1024 1024" version="1.1" xmlns="http://www.w3.org/2000/svg" p-id="3241" xmlns:xlink="http://www.w3.org/1999/xlink" width="200" height="200"><path d="M744.67555555 900.43733333H289.10933333c-88.29155555 0-160.08533333-71.79377778-160.08533333-160.08533333V284.78577778c0-88.29155555 71.79377778-160.08533333 160.08533333-160.08533333h455.56622222c88.29155555 0 160.08533333 71.79377778 160.08533334 160.08533333v455.56622222c0.11377778 88.29155555-71.79377778 160.08533333-160.08533334 160.08533333zM289.10933333 234.04088889c-27.98933333 0-50.74488889 22.75555555-50.74488888 50.74488889v455.56622222c0 27.98933333 22.75555555 50.74488889 50.74488888 50.74488889h455.56622222c27.98933333 0 50.74488889-22.75555555 50.7448889-50.74488889V284.78577778c0-27.98933333-22.75555555-50.74488889-50.7448889-50.74488889H289.10933333z" fill="#BDD2EF" p-id="3242"></path><path d="M148.02488889 948.11022222h264.07822222c36.97777778 0 66.90133333-29.92355555 66.90133334-66.90133333 0-36.864-29.92355555-66.90133333-66.90133334-66.90133334H309.47555555L457.04533333 666.73777778c26.05511111-26.05511111 26.05511111-68.49422222 0-94.54933333-26.05511111-26.05511111-68.49422222-26.05511111-94.54933333 0L214.92622222 719.872v-102.62755555c0-18.432-7.50933333-35.15733333-19.56977777-47.21777778-12.06044445-12.06044445-28.78577778-19.56977778-47.21777778-19.56977778-36.97777778 0-66.90133333 29.92355555-66.90133334 66.90133333v264.07822223c-0.11377778 36.75022222 29.92355555 66.67377778 66.78755556 66.67377777zM880.52622222 78.62044445H616.448c-36.97777778 0-66.90133333 29.92355555-66.90133333 66.90133333 0 36.864 29.92355555 66.90133333 66.90133333 66.90133333H719.07555555L571.50577778 359.87911111c-26.05511111 26.05511111-26.05511111 68.49422222 0 94.54933334 26.05511111 26.05511111 68.49422222 26.05511111 94.54933333 0l147.56977778-147.56977778v102.62755555c0 18.432 7.50933333 35.15733333 19.56977778 47.21777778 12.06044445 12.06044445 28.78577778 19.56977778 47.21777778 19.56977778 36.97777778 0 66.90133333-29.92355555 66.90133333-66.90133333V145.52177778c0.11377778-36.97777778-29.92355555-66.90133333-66.78755556-66.90133333z" fill="#2867CE" p-id="3243"></path></svg>