<?xml version="1.0" standalone="no"?><!DOCTYPE svg PUBLIC "-//W3C//DTD SVG 1.1//EN" "http://www.w3.org/Graphics/SVG/1.1/DTD/svg11.dtd"><svg t="1727512589744" class="icon" viewBox="0 0 1024 1024" version="1.1" xmlns="http://www.w3.org/2000/svg" p-id="3391" xmlns:xlink="http://www.w3.org/1999/xlink" width="200" height="200"><path d="M744.67555555 900.43733333H289.10933333c-88.29155555 0-160.08533333-71.79377778-160.08533333-160.08533333V284.78577778c0-88.29155555 71.79377778-160.08533333 160.08533333-160.08533333h455.56622222c88.29155555 0 160.08533333 71.79377778 160.08533334 160.08533333v455.56622222c0.11377778 88.29155555-71.79377778 160.08533333-160.08533334 160.08533333zM289.10933333 234.04088889c-27.98933333 0-50.74488889 22.75555555-50.74488888 50.74488889v455.56622222c0 27.98933333 22.75555555 50.74488889 50.74488888 50.74488889h455.56622222c27.98933333 0 50.74488889-22.75555555 50.7448889-50.74488889V284.78577778c0-27.98933333-22.75555555-50.74488889-50.7448889-50.74488889H289.10933333z" fill="#BDD2EF" p-id="3392"></path><path d="M409.71377778 552.61866667h-263.96444445c-36.97777778 0-66.90133333 29.92355555-66.90133333 66.90133333 0 36.864 29.92355555 66.90133333 66.90133333 66.90133333h102.62755556L100.80711111 833.99111111c-26.05511111 26.05511111-26.05511111 68.49422222 0 94.54933334 26.05511111 26.05511111 68.49422222 26.05511111 94.54933334 0l147.56977777-147.56977778v102.62755555c0 18.432 7.50933333 35.15733333 19.56977778 47.21777778s28.78577778 19.56977778 47.21777778 19.56977778c36.97777778 0 66.90133333-29.92355555 66.90133333-66.90133333v-263.96444445c0-36.97777778-29.92355555-66.90133333-66.90133333-66.90133333zM618.83733333 474.112H882.91555555c36.97777778 0 66.90133333-29.92355555 66.90133334-66.90133333 0-36.864-29.92355555-66.90133333-66.90133334-66.90133334h-102.62755555l147.56977778-147.56977778c26.05511111-26.05511111 26.05511111-68.49422222 0-94.54933333-26.05511111-26.05511111-68.49422222-26.05511111-94.54933333 0L685.62488889 245.76v-102.62755555c0-18.432-7.50933333-35.15733333-19.56977778-47.21777778-12.06044445-12.06044445-28.78577778-19.56977778-47.21777778-19.56977778-36.97777778 0-66.90133333 29.92355555-66.90133333 66.90133333V407.32444445c0 36.864 29.92355555 66.78755555 66.90133333 66.78755555z" fill="#2867CE" p-id="3393"></path></svg>